PathFileType	4	(X/Y/Z)	/home/nbianco/projects/addbio/data/HamnerRunning2013/Processed/subject10//results/MarkerData/run500.trc
DataRate	CameraRate	NumFrames	NumMarkers	Units	OrigDataRate	OrigDataStartFrame	OrigNumFrames
100	100	8	42	m	100	121	242
Frame#	Time	C7			CLAV			LACR			LASI			LCAL			LFAradius			LFAsuperior			LFAulna			LLEL			LMEL			LMT5			LPSI			LTB1			LTB2			LTB3			LTH1			LTH2			LTH3			LTOE			LUA1			LUA2			LUA3			RACR			RASI			RCAL			RFAradius			RFAsuperior			RFAulna			RLEL			RMEL			RMT5			RPSI			RTB1			RTB2			RTB3			RTH1			RTH2			RTH3			RTOE			RUA1			RUA2			RUA3		
		X1	Y1	Z1	X2	Y2	Z2	X3	Y3	Z3	X4	Y4	Z4	X5	Y5	Z5	X6	Y6	Z6	X7	Y7	Z7	X8	Y8	Z8	X9	Y9	Z9	X10	Y10	Z10	X11	Y11	Z11	X12	Y12	Z12	X13	Y13	Z13	X14	Y14	Z14	X15	Y15	Z15	X16	Y16	Z16	X17	Y17	Z17	X18	Y18	Z18	X19	Y19	Z19	X20	Y20	Z20	X21	Y21	Z21	X22	Y22	Z22	X23	Y23	Z23	X24	Y24	Z24	X25	Y25	Z25	X26	Y26	Z26	X27	Y27	Z27	X28	Y28	Z28	X29	Y29	Z29	X30	Y30	Z30	X31	Y31	Z31	X32	Y32	Z32	X33	Y33	Z33	X34	Y34	Z34	X35	Y35	Z35	X36	Y36	Z36	X37	Y37	Z37	X38	Y38	Z38	X39	Y39	Z39	X40	Y40	Z40	X41	Y41	Z41	X42	Y42	Z42

122	3.26	0.790349	1.47642	-0.30996	0.899329	1.35268	-0.281319	0.846715	1.43967	-0.449458	0.789297	0.950819	-0.445056	0.204603	0.529788	-0.351441	0.956004	1.18085	-0.470982	0.894037	1.19322	-0.593106	0.995181	1.13811	-0.5075	0.796671	1.17838	-0.662764	0.753189	1.14229	-0.61011	0.0559127	0.397856	-0.39662	0.640302	1.01659	-0.360057	0.479045	0.419979	-0.378119	0.390183	0.473587	-0.430212	0.285106	0.433817	-0.361631	0.690118	0.755042	-0.477056	0.705225	0.637135	-0.463933	0.608645	0.559543	-0.448999	0.0860007	0.35032	-0.306387	0.810968	1.34609	-0.560964	0.748946	1.28731	-0.559157	0.808783	1.25761	-0.617132	0.816192	1.43301	-0.162196	0.812301	0.968659	-0.203665	0.976858	0.100319	-0.284985	0.66444	1.12629	-0.0870366	0.583523	1.22689	-0.0314305	0.602065	1.09762	-0.0734095	0.526977	1.32691	-0.0465221	0.512563	1.31909	-0.122746	1.16354	0.0974125	-0.208734	0.642272	1.011	-0.260839	1.02394	0.414639	-0.237245	1.00221	0.329627	-0.193084	1.04521	0.229115	-0.258854	0.829384	0.747749	-0.129586	0.925803	0.703497	-0.149262	0.918753	0.596889	-0.17158	1.18918	0.159228	-0.302651	0.709397	1.40279	-0.0772168	0.637626	1.39582	-0.134644	0.600537	1.35096	-0.0600436
123	3.27	0.78822	1.47039	-0.30786	0.899303	1.34724	-0.282266	0.844416	1.43481	-0.449338	0.793218	0.944504	-0.444068	0.234429	0.549648	-0.347337	0.949902	1.1613	-0.474707	0.883129	1.18222	-0.594192	0.982577	1.11657	-0.514866	0.783538	1.17578	-0.662455	0.739833	1.14127	-0.609171	0.0757083	0.434398	-0.402956	0.642602	1.00842	-0.36245	0.498032	0.416612	-0.382322	0.41283	0.479108	-0.431984	0.305833	0.447094	-0.363426	0.697944	0.746717	-0.4782	0.717854	0.629888	-0.466911	0.624908	0.54946	-0.451947	0.0993705	0.379053	-0.314701	0.804167	1.3426	-0.560259	0.741061	1.28537	-0.557308	0.799227	1.25409	-0.617439	0.816718	1.42631	-0.16104	0.812463	0.964194	-0.201898	0.942622	0.0965912	-0.289833	0.67595	1.11713	-0.0827256	0.592603	1.21408	-0.0241868	0.614599	1.0864	-0.068115	0.532629	1.31203	-0.0371209	0.515685	1.30492	-0.112979	1.12419	0.0710045	-0.208235	0.642611	1.00387	-0.262548	1.00764	0.397699	-0.238394	0.980156	0.314267	-0.194475	1.0189	0.211041	-0.261389	0.826853	0.741063	-0.130351	0.920781	0.692684	-0.14987	0.909051	0.585652	-0.173523	1.1582	0.125939	-0.303197	0.712141	1.39344	-0.0737789	0.638073	1.3852	-0.127777	0.60454	1.33829	-0.0522182
124	3.28	0.785605	1.46324	-0.305909	0.899552	1.34146	-0.283529	0.84149	1.42995	-0.449699	0.796909	0.937014	-0.442579	0.266147	0.565658	-0.344025	0.942806	1.14137	-0.478931	0.871251	1.17109	-0.596295	0.968055	1.09526	-0.523267	0.76966	1.17313	-0.661881	0.725986	1.13993	-0.608117	0.102232	0.463716	-0.40876	0.644273	0.999035	-0.365304	0.519573	0.412845	-0.386679	0.43829	0.482768	-0.434007	0.329892	0.458356	-0.365334	0.706145	0.737896	-0.479096	0.73084	0.622265	-0.470127	0.642381	0.538935	-0.454913	0.118867	0.40401	-0.321434	0.796264	1.33839	-0.559479	0.732589	1.28251	-0.555349	0.788946	1.25011	-0.617338	0.817432	1.41918	-0.159858	0.811474	0.958939	-0.201181	0.906334	0.0984649	-0.296716	0.689024	1.10642	-0.0777451	0.60317	1.19932	-0.0159045	0.629138	1.07317	-0.0618103	0.539721	1.29514	-0.0268901	0.520024	1.28795	-0.102093	1.08244	0.0530705	-0.210455	0.641348	0.996814	-0.264437	0.993457	0.385712	-0.239981	0.95734	0.302958	-0.195108	0.992929	0.199377	-0.267383	0.821765	0.733275	-0.129959	0.914186	0.68189	-0.148564	0.900251	0.576188	-0.173086	1.124	0.0963288	-0.307149	0.715352	1.38244	-0.0701934	0.638834	1.37235	-0.120175	0.609615	1.32356	-0.0440548
125	3.29	0.783308	1.45605	-0.303951	0.900088	1.33588	-0.285027	0.837745	1.42567	-0.450779	0.799776	0.92904	-0.440456	0.299605	0.577814	-0.342297	0.933762	1.12079	-0.484341	0.85834	1.16029	-0.598915	0.951782	1.07505	-0.532779	0.755002	1.17064	-0.660822	0.711506	1.13864	-0.606535	0.133701	0.484588	-0.413694	0.644442	0.989132	-0.368498	0.54416	0.408969	-0.390291	0.466326	0.484006	-0.436147	0.357063	0.467273	-0.367143	0.715559	0.729759	-0.479431	0.744355	0.615212	-0.473054	0.661571	0.528599	-0.457346	0.143711	0.424061	-0.325839	0.787472	1.33366	-0.558612	0.723607	1.27889	-0.55316	0.77801	1.24592	-0.616855	0.818487	1.41219	-0.158679	0.808616	0.953566	-0.201319	0.866907	0.10288	-0.304368	0.703701	1.09435	-0.0725244	0.6156	1.18285	-0.00708954	0.645656	1.05824	-0.0549496	0.548557	1.27659	-0.0161843	0.526067	1.26846	-0.090496	1.03878	0.046028	-0.214015	0.638442	0.990484	-0.267026	0.980587	0.380175	-0.242677	0.934424	0.297275	-0.19516	0.966064	0.195614	-0.27581	0.814235	0.726531	-0.128734	0.907319	0.675286	-0.145565	0.894337	0.57153	-0.169825	1.08593	0.0770437	-0.312543	0.719213	1.37015	-0.0663552	0.640512	1.35764	-0.112035	0.616321	1.30669	-0.0358298
126	3.3	0.782215	1.45012	-0.301915	0.90071	1.33102	-0.286672	0.83338	1.42223	-0.452491	0.801324	0.921451	-0.43759	0.334555	0.586163	-0.342598	0.922233	1.09988	-0.491001	0.844384	1.15057	-0.601363	0.933748	1.05698	-0.543176	0.739649	1.16861	-0.659218	0.69653	1.1379	-0.604176	0.16833	0.496805	-0.417866	0.643072	0.980144	-0.371687	0.572337	0.405409	-0.392205	0.496815	0.482653	-0.438101	0.387472	0.473237	-0.368558	0.726433	0.72324	-0.479082	0.758899	0.609791	-0.475031	0.683225	0.519378	-0.458965	0.173272	0.437983	-0.328369	0.778388	1.32905	-0.557679	0.714269	1.27501	-0.550415	0.76653	1.24205	-0.616292	0.819535	1.40595	-0.157671	0.803909	0.949368	-0.201002	0.823449	0.106774	-0.310102	0.720181	1.08125	-0.0674102	0.630541	1.16508	0.00153977	0.664339	1.04208	-0.0480093	0.559541	1.2566	-0.00524207	0.534203	1.24685	-0.0784471	0.993009	0.046647	-0.216679	0.634338	0.98545	-0.270432	0.966331	0.378489	-0.245861	0.911612	0.296221	-0.195417	0.935878	0.196477	-0.282698	0.806402	0.723013	-0.127739	0.901178	0.67477	-0.142508	0.890679	0.571518	-0.165332	1.0434	0.0694639	-0.316624	0.723827	1.35695	-0.0623891	0.643398	1.34155	-0.103562	0.625014	1.28804	-0.0276824
127	3.31	0.782579	1.44616	-0.300218	0.90112	1.32717	-0.288437	0.829261	1.41943	-0.454512	0.80145	0.915087	-0.434181	0.37016	0.590895	-0.34487	0.908298	1.07987	-0.498107	0.829609	1.14263	-0.603163	0.913824	1.04212	-0.553668	0.723891	1.16741	-0.657068	0.681515	1.13814	-0.601027	0.204898	0.500569	-0.421575	0.640871	0.973687	-0.374328	0.604395	0.402658	-0.391833	0.529782	0.479179	-0.439496	0.421247	0.475774	-0.369346	0.738262	0.718574	-0.478245	0.77545	0.606734	-0.47556	0.708188	0.512207	-0.459807	0.207024	0.444781	-0.330168	0.76988	1.32531	-0.55679	0.704982	1.27177	-0.546754	0.754597	1.23917	-0.615657	0.820048	1.40092	-0.157152	0.798132	0.947502	-0.1989	0.776725	0.108882	-0.312089	0.738878	1.06761	-0.0626043	0.648804	1.14687	0.00914212	0.685442	1.02541	-0.0413122	0.573252	1.23552	0.00569862	0.5447	1.22375	-0.0659708	0.945443	0.0492157	-0.217079	0.629877	0.982028	-0.274143	0.948486	0.375761	-0.24677	0.888422	0.296452	-0.196786	0.900981	0.196585	-0.284662	0.799968	0.722645	-0.127692	0.894757	0.677138	-0.140918	0.885371	0.572248	-0.16219	0.997275	0.0691604	-0.317831	0.729119	1.34341	-0.0588148	0.647382	1.32467	-0.0951167	0.635801	1.26864	-0.0197976
128	3.32	0.78372	1.44391	-0.299701	0.901128	1.32422	-0.290321	0.826506	1.41688	-0.456546	0.800435	0.910538	-0.430868	0.405111	0.592273	-0.348475	0.892644	1.06232	-0.504538	0.814487	1.1367	-0.604241	0.89216	1.03116	-0.563316	0.708179	1.16736	-0.654365	0.667023	1.13958	-0.597193	0.242883	0.496123	-0.42511	0.63867	0.970508	-0.376077	0.64019	0.401259	-0.389305	0.565249	0.474615	-0.440099	0.458073	0.474944	-0.369474	0.750149	0.715614	-0.477317	0.794874	0.606497	-0.474558	0.736857	0.507922	-0.459965	0.244215	0.443881	-0.332018	0.762613	1.32296	-0.556097	0.696438	1.2701	-0.542082	0.742305	1.23775	-0.614406	0.819854	1.39721	-0.157387	0.792281	0.947925	-0.195004	0.728553	0.109595	-0.31085	0.760271	1.05428	-0.0583384	0.67081	1.1295	0.0151241	0.709144	1.00932	-0.0349775	0.590149	1.2142	0.0162886	0.557692	1.20022	-0.0530447	0.897071	0.0501459	-0.215639	0.625926	0.980289	-0.277283	0.926668	0.368493	-0.242583	0.863749	0.294389	-0.199678	0.861721	0.192934	-0.282574	0.794294	0.723012	-0.128373	0.885947	0.676425	-0.141121	0.87423	0.569384	-0.162051	0.949513	0.0703068	-0.316756	0.73478	1.33035	-0.0563629	0.652148	1.30772	-0.0872015	0.648591	1.25009	-0.0125054
129	3.33	0.784656	1.44261	-0.300961	0.900783	1.32186	-0.292243	0.825622	1.41449	-0.458456	0.798663	0.90804	-0.428479	0.438002	0.590424	-0.352377	0.876127	1.04817	-0.509744	0.799507	1.13244	-0.604841	0.869569	1.02395	-0.571772	0.692965	1.16875	-0.651153	0.653433	1.14236	-0.592797	0.282242	0.483808	-0.428654	0.636882	0.970046	-0.377047	0.67908	0.401861	-0.385325	0.602937	0.470216	-0.439931	0.496958	0.471462	-0.369054	0.761362	0.714475	-0.476598	0.817051	0.609713	-0.472362	0.768655	0.507436	-0.459404	0.283936	0.43515	-0.333771	0.756657	1.32217	-0.555672	0.689304	1.27055	-0.536712	0.729943	1.23802	-0.611979	0.81938	1.39462	-0.158339	0.787081	0.949214	-0.190871	0.680321	0.109834	-0.308529	0.784519	1.04263	-0.0550978	0.695989	1.11432	0.0195095	0.735555	0.995301	-0.0291833	0.61008	1.19408	0.0260591	0.57324	1.17766	-0.0400298	0.84873	0.049441	-0.213838	0.622949	0.980101	-0.279145	0.901377	0.356766	-0.233615	0.836205	0.288668	-0.203647	0.819415	0.186669	-0.280572	0.787177	0.721536	-0.129153	0.873781	0.66914	-0.142578	0.856384	0.561771	-0.164561	0.901593	0.0700532	-0.315184	0.740421	1.31897	-0.055484	0.657614	1.29142	-0.0803193	0.663182	1.23388	-0.00617659
